<?xml version="1.0" standalone="no"?>
<!DOCTYPE svg PUBLIC "-//W3C//DTD SVG 20010904//EN"
 "http://www.w3.org/TR/2001/REC-SVG-20010904/DTD/svg10.dtd">
<svg version="1.0" xmlns="http://www.w3.org/2000/svg"
 width="300.000000pt" height="300.000000pt" viewBox="0 0 300.000000 300.000000"
 preserveAspectRatio="xMidYMid meet">
<metadata>
Created by potrace 1.10, written by Peter Selinger 2001-2011
</metadata>
<g transform="translate(0.000000,300.000000) scale(0.100000,-0.100000)"
fill="#000000" stroke="none">
<path d="M1460 2370 c-19 -19 -20 -33 -20 -325 0 -292 1 -306 20 -325 11 -11
29 -20 40 -20 11 0 29 9 40 20 19 19 20 33 20 325 0 292 -1 306 -20 325 -11
11 -29 20 -40 20 -11 0 -29 -9 -40 -20z"/>
<path d="M282 1888 c-7 -7 -12 -25 -12 -42 0 -26 31 -61 213 -243 116 -118
222 -216 235 -219 33 -9 72 20 72 54 0 22 -40 67 -218 245 -188 187 -221 217
-248 217 -16 0 -35 -5 -42 -12z"/>
<path d="M2427 1682 c-176 -176 -217 -222 -217 -244 0 -34 39 -63 72 -54 13 3
119 101 236 219 181 182 212 217 212 243 0 38 -16 54 -55 54 -26 0 -59 -29
-248 -218z"/>
<path d="M1400 1584 c-14 -2 -52 -9 -85 -15 -33 -6 -100 -26 -148 -45 -300
-115 -525 -395 -571 -709 l-12 -80 -267 -5 c-157 -3 -270 -9 -275 -15 -24 -25
-23 -55 2 -80 l25 -25 1431 0 1432 1 24 25 c18 18 23 30 19 47 -14 45 -24 47
-300 47 l-262 0 -7 69 c-7 77 -44 196 -88 286 -117 235 -350 418 -612 481 -62
14 -260 26 -306 18z m257 -130 c250 -51 472 -229 573 -457 21 -47 55 -172 63
-229 l6 -38 -799 0 -798 0 5 43 c25 194 135 392 286 515 190 153 433 214 664
166z"/>
</g>
</svg>
