<?xml version="1.0" standalone="no"?>
<!DOCTYPE svg PUBLIC "-//W3C//DTD SVG 20010904//EN"
 "http://www.w3.org/TR/2001/REC-SVG-20010904/DTD/svg10.dtd">
<svg version="1.0" xmlns="http://www.w3.org/2000/svg"
 width="300.000000pt" height="300.000000pt" viewBox="0 0 300.000000 300.000000"
 preserveAspectRatio="xMidYMid meet">

<g transform="translate(0.000000,300.000000) scale(0.100000,-0.100000)"
fill="#000000" stroke="none">
<path d="M1462 2258 c-9 -9 -12 -86 -12 -285 l0 -273 25 -16 c23 -15 27 -15
50 0 l25 16 0 273 c0 292 -1 297 -50 297 -14 0 -31 -5 -38 -12z"/>
<path d="M442 1838 c-34 -34 -16 -59 176 -251 191 -191 216 -209 250 -175 34
34 16 59 -176 251 -191 191 -216 209 -250 175z"/>
<path d="M2307 1662 c-191 -191 -209 -216 -175 -250 34 -34 59 -16 251 176
191 191 209 216 175 250 -34 34 -59 16 -251 -176z"/>
<path d="M1385 1570 c-72 -12 -173 -44 -240 -78 -230 -115 -402 -352 -433
-597 l-7 -60 -229 -3 c-149 -1 -234 -6 -243 -13 -16 -14 -17 -61 -1 -77 17
-17 2519 -17 2536 0 15 15 15 61 0 76 -9 9 -77 12 -244 12 l-231 0 -6 63 c-25
257 -229 519 -485 623 -130 52 -291 73 -417 54z m289 -120 c188 -48 349 -177
441 -352 35 -65 75 -197 75 -245 l0 -23 -690 0 -690 0 0 23 c0 48 40 180 75
245 91 174 252 303 437 352 100 26 250 26 352 0z"/>
</g>
</svg>
