<?xml version="1.0" standalone="no"?>
<!DOCTYPE svg PUBLIC "-//W3C//DTD SVG 20010904//EN"
 "http://www.w3.org/TR/2001/REC-SVG-20010904/DTD/svg10.dtd">
<svg version="1.0" xmlns="http://www.w3.org/2000/svg"
 width="1172.000000pt" height="1172.000000pt" viewBox="0 0 1172.000000 1172.000000"
 preserveAspectRatio="xMidYMid meet">
<metadata>
Created by potrace 1.11, written by Peter Selinger 2001-2013
</metadata>
<g transform="translate(0.000000,1172.000000) scale(0.100000,-0.100000)"
fill="#000000" stroke="none">
<path d="M5643 8984 c-74 -32 -98 -65 -119 -159 -1 -5 -7 -30 -15 -55 -14 -51
-232 -905 -245 -962 -2 -10 -6 -26 -8 -35 -2 -10 -18 -76 -36 -148 -18 -71
-34 -138 -35 -148 -2 -9 -6 -21 -9 -25 -3 -5 -8 -24 -11 -43 -5 -31 -106 -450
-141 -584 -7 -29 -46 -193 -49 -209 -3 -10 -14 -55 -26 -100 -11 -45 -23 -92
-25 -104 -3 -13 -12 -49 -20 -80 -9 -32 -17 -68 -19 -82 -1 -14 -10 -50 -18
-80 -9 -30 -18 -66 -21 -80 -2 -14 -11 -52 -19 -85 -9 -33 -18 -71 -20 -85 -3
-14 -13 -54 -22 -90 -9 -36 -18 -72 -20 -80 -2 -8 -8 -35 -15 -60 -7 -25 -14
-54 -16 -65 -3 -17 -10 -48 -20 -87 -1 -5 -2 -9 -4 -10 -2 -4 -7 -25 -15 -63
-3 -16 -13 -55 -21 -85 -8 -30 -17 -64 -19 -75 -8 -34 -14 -59 -25 -100 -6
-22 -13 -51 -16 -65 -3 -14 -12 -48 -20 -76 -8 -28 -16 -60 -18 -70 -2 -11
-14 -57 -26 -104 -12 -47 -23 -92 -25 -100 -3 -12 -34 -129 -50 -190 -3 -8 -9
-31 -14 -50 -5 -19 -14 -50 -20 -68 -5 -18 -10 -33 -9 -35 0 -1 -7 -27 -16
-57 -9 -30 -17 -64 -19 -75 -2 -11 -7 -27 -10 -35 -7 -20 -28 -88 -31 -103 -2
-7 -6 -19 -9 -27 -3 -8 -9 -28 -14 -44 -14 -45 -28 -41 -41 11 -6 27 -21 82
-33 123 -18 66 -72 273 -115 445 -9 33 -17 67 -19 75 -3 8 -9 33 -15 55 -6 22
-12 47 -14 55 -2 8 -13 51 -25 95 -11 44 -22 91 -25 105 -3 14 -13 52 -22 85
-9 33 -18 67 -19 75 -2 8 -25 98 -50 200 -26 102 -48 192 -50 200 -2 8 -10 42
-18 75 -9 33 -18 71 -21 85 -3 14 -12 52 -21 85 -9 33 -18 69 -20 80 -2 11 -9
40 -15 65 -7 25 -13 52 -15 60 -3 16 -38 156 -56 225 -6 22 -9 42 -8 45 1 3
-3 15 -9 26 -6 12 -14 36 -17 55 -3 19 -13 59 -21 89 -9 30 -17 62 -19 70 -2
8 -15 62 -30 120 -15 58 -28 112 -30 120 -20 81 -110 397 -137 475 -70 207
-111 267 -198 290 -49 13 -57 13 -95 -4 -103 -46 -219 -292 -432 -921 -20 -58
-40 -116 -46 -130 -5 -14 -12 -34 -14 -45 -2 -10 -10 -30 -18 -42 -9 -13 -13
-23 -11 -23 4 0 -104 -321 -134 -395 -6 -16 -13 -37 -15 -45 -5 -20 -87 -254
-92 -259 -1 -2 -60 -5 -130 -7 -349 -7 -656 -15 -823 -19 -102 -3 -288 -7
-413 -10 -309 -8 -602 -20 -692 -29 -27 -3 -79 -8 -114 -11 -35 -4 -74 -11
-87 -16 -13 -4 -24 -6 -24 -3 0 3 -18 -5 -40 -17 -45 -25 -81 -89 -83 -148 -2
-41 37 -145 65 -177 26 -30 83 -45 213 -59 28 -3 199 -7 381 -10 183 -2 336
-5 340 -6 5 -1 14 -1 19 0 9 1 530 2 530 1 0 -4 764 1 830 6 50 3 105 7 122 8
18 0 33 3 33 6 0 3 14 7 31 8 38 3 147 53 176 81 24 23 72 92 91 131 11 24 34
80 37 90 0 3 9 30 20 60 10 30 20 60 21 65 3 13 83 255 91 275 3 8 7 17 8 20
13 53 82 231 127 330 37 80 61 109 73 89 6 -9 56 -188 70 -249 1 -8 17 -70 34
-138 17 -68 33 -133 35 -145 3 -12 5 -22 6 -22 1 0 3 -7 5 -15 2 -8 11 -44 20
-80 9 -36 25 -101 36 -145 25 -103 19 -78 79 -315 28 -113 53 -214 55 -225 4
-24 5 -26 45 -190 18 -71 33 -134 35 -140 1 -5 5 -23 9 -40 25 -100 68 -272
71 -285 2 -8 13 -53 25 -100 11 -47 23 -96 26 -109 3 -14 7 -28 10 -32 2 -4 8
-27 14 -51 5 -24 14 -61 20 -83 6 -22 13 -51 16 -64 3 -13 18 -72 34 -131 16
-59 31 -118 34 -131 5 -24 47 -184 66 -249 9 -32 56 -203 80 -290 8 -31 54
-186 82 -280 22 -72 52 -146 66 -162 19 -23 88 -44 134 -42 104 4 181 54 220
142 21 47 76 243 93 332 3 14 14 59 25 100 12 41 22 84 24 95 2 11 9 40 15 65
6 25 14 56 17 70 2 14 7 33 10 42 3 9 7 25 9 35 19 81 60 253 90 373 20 80 38
154 40 165 14 62 17 75 17 82 0 5 4 18 9 31 5 12 11 33 13 45 2 12 14 63 26
112 12 50 23 97 25 105 28 118 139 585 154 646 11 44 22 89 24 100 2 10 7 30
10 44 4 14 20 81 36 150 17 69 42 175 56 235 34 139 35 145 41 175 3 14 9 39
14 55 5 17 11 41 14 55 2 14 23 104 46 200 23 96 43 182 45 190 2 8 13 56 25
105 12 50 23 98 25 108 2 10 7 27 10 37 6 20 13 51 20 90 2 14 18 76 35 139
17 63 33 128 36 144 2 17 7 33 9 37 2 3 6 17 9 31 16 75 88 339 103 379 3 8 8
26 10 40 9 54 34 38 48 -30 2 -8 8 -35 15 -60 11 -42 14 -53 25 -105 3 -11 7
-29 9 -40 3 -11 17 -72 31 -135 15 -63 29 -124 31 -135 2 -11 6 -31 9 -45 15
-77 32 -159 40 -192 3 -13 8 -36 10 -52 2 -15 7 -35 9 -45 3 -9 8 -31 11 -49
3 -18 12 -64 20 -102 8 -38 17 -82 20 -97 3 -16 7 -39 10 -53 3 -14 8 -38 11
-55 2 -16 7 -41 9 -55 3 -14 7 -36 10 -50 3 -14 23 -117 45 -230 22 -113 44
-230 50 -260 6 -30 14 -68 16 -85 3 -16 7 -41 10 -55 3 -14 8 -35 10 -47 5
-28 12 -64 20 -100 3 -16 7 -37 9 -48 2 -11 12 -67 24 -125 11 -58 22 -116 25
-130 11 -55 26 -136 30 -155 21 -97 48 -236 52 -264 2 -18 6 -37 9 -41 3 -4 7
-25 11 -46 3 -22 9 -55 14 -74 5 -19 12 -50 15 -68 22 -131 98 -250 177 -277
40 -13 102 -12 149 4 30 10 42 23 76 89 23 42 59 122 81 177 22 55 43 109 47
120 5 11 9 22 10 25 4 19 58 179 65 195 8 17 59 182 66 210 2 6 17 57 34 115
17 58 43 146 56 195 14 50 30 106 35 125 5 19 12 43 14 53 18 76 59 202 68
205 4 2 7 10 7 19 0 8 6 21 14 28 17 17 36 1 36 -30 0 -12 4 -25 9 -30 5 -6
27 -68 49 -140 22 -71 57 -184 78 -250 21 -66 39 -126 41 -132 2 -7 5 -19 6
-25 2 -7 7 -26 11 -43 4 -16 11 -39 16 -50 8 -19 46 -148 55 -188 2 -9 6 -21
9 -25 3 -5 7 -19 10 -33 3 -13 25 -95 50 -181 25 -86 52 -181 60 -210 8 -29
24 -87 36 -128 12 -41 23 -79 24 -85 2 -5 9 -30 16 -55 7 -25 14 -49 15 -55 0
-5 11 -44 24 -85 13 -41 25 -82 26 -90 2 -8 4 -15 5 -15 1 0 3 -7 5 -16 1 -9
11 -43 21 -75 9 -33 19 -63 20 -69 1 -5 12 -41 24 -80 12 -38 25 -83 29 -100
5 -16 15 -47 24 -67 9 -21 14 -38 12 -38 -4 0 58 -179 76 -220 44 -97 77 -145
115 -171 36 -23 145 -18 205 10 78 37 73 29 195 336 31 77 62 154 69 170 7 17
29 74 49 127 20 53 40 107 45 120 20 46 277 736 285 763 2 6 6 17 9 25 3 8 23
65 45 125 142 391 207 561 216 567 5 3 75 7 155 8 578 6 1604 21 1726 25 357
12 458 28 511 80 38 37 72 121 68 165 -7 69 -53 140 -103 159 -40 15 -119 30
-191 37 -36 3 -78 7 -95 9 -272 29 -1027 44 -1568 31 -248 -7 -302 -9 -477
-20 -85 -6 -199 -17 -225 -22 -11 -2 -36 -7 -55 -10 -58 -10 -68 -20 -119
-127 -75 -155 -261 -613 -261 -642 0 -8 -5 -17 -10 -20 -6 -4 -8 -11 -5 -16 4
-5 1 -9 -4 -9 -6 0 -10 -3 -9 -7 2 -5 -2 -21 -9 -38 -6 -16 -30 -82 -53 -145
-61 -167 -139 -370 -155 -405 -7 -16 -20 -46 -28 -65 -40 -93 -68 -150 -75
-150 -4 0 -15 21 -24 48 -22 66 -79 244 -83 262 -2 8 -13 44 -24 80 -25 82
-101 340 -106 360 -7 28 -273 944 -300 1035 -15 50 -28 95 -30 100 -1 6 -5 17
-8 25 -3 8 -31 97 -62 196 -88 289 -175 535 -215 612 -27 52 -52 63 -145 65
-104 2 -164 -23 -204 -84 -17 -26 -31 -54 -31 -61 0 -8 -4 -18 -9 -24 -7 -7
-68 -176 -75 -209 -2 -5 -9 -30 -16 -55 -8 -25 -14 -47 -15 -50 -1 -3 -7 -25
-14 -50 -6 -25 -15 -52 -18 -60 -6 -14 -9 -24 -16 -52 -2 -7 -10 -33 -17 -58
-7 -25 -14 -50 -16 -57 -1 -7 -11 -43 -23 -80 -28 -93 -54 -187 -54 -193 0 -3
-4 -16 -9 -30 -8 -20 -49 -158 -62 -205 -8 -33 -50 -136 -57 -140 -10 -7 -16
13 -44 155 -3 14 -8 36 -11 50 -3 14 -8 36 -10 50 -4 20 -10 52 -19 90 -1 3
-5 25 -10 50 -5 25 -9 47 -10 50 -4 19 -16 79 -20 100 -15 78 -31 158 -45 225
-6 28 -13 62 -15 77 -2 15 -6 35 -9 45 -3 10 -8 32 -11 48 -2 17 -19 100 -35
185 -17 85 -33 164 -35 175 -2 11 -6 30 -8 41 -3 12 -8 37 -11 55 -3 19 -19
102 -35 185 -17 82 -32 163 -35 180 -3 16 -10 54 -16 84 -6 30 -13 64 -14 75
-2 11 -6 31 -10 45 -3 14 -8 41 -11 60 -3 19 -9 55 -15 80 -5 25 -14 68 -19
95 -6 28 -15 75 -21 105 -6 30 -13 66 -16 80 -2 14 -7 36 -10 50 -3 14 -8 34
-10 45 -4 23 -54 262 -59 285 -2 8 -10 49 -19 90 -19 92 -40 188 -66 295 -10
44 -21 91 -24 105 -27 121 -50 200 -67 227 -18 30 -75 53 -147 62 -50 6 -68 4
-109 -15z"/>
</g>
</svg>
