<?xml version="1.0" standalone="no"?>
<!DOCTYPE svg PUBLIC "-//W3C//DTD SVG 20010904//EN"
 "http://www.w3.org/TR/2001/REC-SVG-20010904/DTD/svg10.dtd">
<svg version="1.0" xmlns="http://www.w3.org/2000/svg"
 width="220.000000pt" height="122.000000pt" viewBox="0 0 220.000000 122.000000"
 preserveAspectRatio="xMidYMid meet">
<g transform="translate(0.000000,122.000000) scale(0.100000,-0.100000)"
fill="#2ca8ff" stroke="none">
<path d="M1042 1183 c-5 -10 -58 -222 -118 -471 -59 -249 -111 -447 -115 -440
-3 7 -42 156 -85 332 -70 283 -82 320 -102 329 -36 17 -51 -7 -112 -185 l-57
-163 -217 -5 c-178 -4 -218 -8 -226 -20 -12 -19 -12 -27 0 -51 10 -18 24 -19
255 -19 283 0 247 -17 300 139 19 56 35 90 39 81 3 -8 42 -163 86 -345 45
-181 87 -336 95 -344 8 -8 23 -11 39 -7 19 5 28 16 36 47 12 45 85 349 156
649 25 107 49 198 53 203 4 4 31 -118 60 -270 29 -153 57 -295 62 -315 10 -38
33 -54 62 -42 15 6 52 107 89 247 6 26 15 47 19 47 3 0 34 -100 69 -223 78
-278 82 -287 113 -287 14 0 29 6 36 13 6 8 43 103 84 213 l73 199 219 3 c193
2 222 4 233 19 16 22 15 38 -4 57 -22 22 -485 24 -507 2 -7 -8 -38 -80 -67
-160 -29 -81 -55 -144 -58 -141 -3 3 -38 119 -77 257 -42 147 -78 256 -87 262
-8 5 -26 6 -39 3 -26 -7 -25 -4 -84 -210 -9 -32 -18 -57 -20 -55 -2 2 -31 147
-65 322 -33 176 -66 326 -72 333 -15 19 -56 16 -66 -4z"/>
</g>
</svg>
