<svg id="Capa_1" enable-background="new 0 0 512 512" height="512" viewBox="0 0 512 512" width="512" xmlns="http://www.w3.org/2000/svg"><g><path d="m0 60h30v30h-30z" fill="#ece6f2"/><path d="m30 452h30v30h-30z" fill="#80aaff"/><path d="m60 30h30v30h-30z" fill="#ffda44"/><path d="m482 90h30v30h-30z" fill="#cfcfe6"/><path d="m392 240h30v30h-30z" fill="#ffb655"/><path d="m332 210h30v30h-30z" fill="#cfcfe6"/><path d="m422 482h30v30h-30z" fill="#ffb655"/><path d="m392 0h30v30h-30z" fill="#6e76e5"/><path d="m361 120v-30h-30v-30h-30v30h-30v30h30v30h30v-30z" fill="#6e76e5"/><path d="m256 256-69.736 41.452-79.464 107.748c25.864 25.864 56.772 43.604 89.557 53.232h119.286c32.785-9.628 63.693-27.368 89.557-53.232z" fill="#cfcfe6"/><path d="m106.8 106.801c-82.4 82.4-82.4 215.998 0 298.399l149.2-149.2z" fill="#ece6f2"/><circle cx="135" cy="271" fill="#cfcfe6" r="45"/><path d="m315.643 458.431c.228-2.133.357-4.28.357-6.431 0-33.084-26.916-60-60-60s-60 26.916-60 60c0 2.152.129 4.298.357 6.431 38.882 11.419 80.403 11.419 119.286 0z" fill="#a3aacc"/></g></svg>