<svg id="Capa_1" enable-background="new 0 0 512 512" height="512" viewBox="0 0 512 512" width="512" xmlns="http://www.w3.org/2000/svg"><g><path d="m256 45-20 81 168.38-20c-38.118-37.708-90.526-61-148.38-61z" fill="#ff415b"/><path d="m107.62 106 148.38 20v-81c-57.854 0-110.262 23.292-148.38 61z" fill="#ff8859"/><path d="m447.629 167.604c-10.673-23.092-25.387-43.934-43.25-61.604h-148.379l-20 125c148.38 0 211.629-63.396 211.629-63.396z" fill="#ff8859"/><path d="m107.62 106c-17.862 17.671-32.577 38.512-43.25 61.605-4.925 13.561 72.13 62.916 191.623 62.916l.007-124.521z" fill="#ffb655"/><path d="m467 256c0-31.567-6.944-61.508-19.371-88.396-34.418 6.22-40.778 28.396-86.132 28.396-52.75 0-52.752-29.997-105.497-30l-20 140 228.867-20c1.396-9.801 2.133-19.814 2.133-30z" fill="#ffb655"/><path d="m255.994 166c-52.749 0-52.749 30-105.498 30-45.35 0-51.71-22.176-86.125-28.395-12.427 26.887-19.371 56.828-19.371 88.395 0 10.186.737 20.199 2.133 30l208.867 20v-140c-.002 0-.004 0-.006 0z" fill="#ffda44"/><path d="m256 286s-19.996 140-19.994 140c103.494 0 180.881-33.506 180.881-33.506 25.129-29.596 42.245-66.21 47.98-106.494z" fill="#ff8859"/><path d="m47.133 286c5.735 40.284 22.852 76.899 47.981 106.495 0 0 55.386 33.505 160.886 33.505v-140z" fill="#ffb655"/><path d="m0 60h30v30h-30z" fill="#ffda44"/><path d="m30 452h30v30h-30z" fill="#ece6f2"/><path d="m60 30h30v30h-30z" fill="#ffda44"/><path d="m482 90h30v30h-30z" fill="#6e76e5"/><path d="m482 482h30v30h-30z" fill="#6e76e5"/><path d="m422 452h30v30h-30z" fill="#ffda44"/><path d="m422 0h30v30h-30z" fill="#ffb655"/><path d="m331 316c-16.569 0-30-13.431-30-30s13.431-30 30-30h30c16.569 0 30 13.431 30 30s-13.431 30-30 30z" fill="#ff415b"/><path d="m361.505 376c-52.749 0-52.749 30-105.498 30-.002 0-.004 0-.006 0l-20 28.333 19.999 32.667c64.477 0 122.188-28.928 160.887-74.506-14.126-7.963-27.255-16.494-55.382-16.494z" fill="#ff415b"/><path d="m150.503 376c-28.131 0-41.261 8.532-55.389 16.495 38.699 45.578 96.409 74.505 160.886 74.505v-61c-52.745-.003-52.747-30-105.497-30z" fill="#ff8859"/></g></svg>