<svg id="Capa_1" enable-background="new 0 0 512 512" height="512" viewBox="0 0 512 512" width="512" xmlns="http://www.w3.org/2000/svg"><g><path d="m256 45-20 393.437 79.642 20c87.485-25.735 151.358-106.621 151.358-202.437 0-116.532-94.468-211-211-211z" fill="#cfcfe6"/><path d="m45 256c0 95.816 63.873 176.702 151.358 202.437l59.642-20v-393.437c-116.532 0-211 94.468-211 211z" fill="#ece6f2"/><circle cx="150" cy="256" fill="#cfcfe6" r="60"/><circle cx="150" cy="256" fill="#a3aacc" r="30"/><circle cx="341.56" cy="170.44" fill="#a3aacc" r="45"/><path d="m0 60h30v30h-30z" fill="#ece6f2"/><path d="m30 452h30v30h-30z" fill="#80aaff"/><path d="m60 30h30v30h-30z" fill="#ffda44"/><path d="m482 90h30v30h-30z" fill="#6e76e5"/><path d="m482 482h30v30h-30z" fill="#ffb655"/><path d="m422 452h30v30h-30z" fill="#ffb655"/><path d="m422 0h30v30h-30z" fill="#6e76e5"/><path d="m286 332h30v30h-30z" fill="#a3aacc"/><path d="m166 120h30v30h-30z" fill="#cfcfe6"/><path d="m346 302h30v30h-30z" fill="#a3aacc"/><path d="m256 392-20 37.5 20 37.5c20.716 0 40.728-2.999 59.642-8.563.228-2.135.358-4.283.358-6.437 0-33.084-26.916-60-60-60z" fill="#a3aacc"/><path d="m196 452c0 2.153.129 4.302.358 6.437 18.914 5.564 38.926 8.563 59.642 8.563v-75c-33.084 0-60 26.916-60 60z" fill="#cfcfe6"/></g></svg>