<?xml version="1.0" encoding="utf-8"?>
<!-- Generator: Adobe Illustrator 16.0.0, SVG Export Plug-In . SVG Version: 6.00 Build 0)  -->
<!DOCTYPE svg PUBLIC "-//W3C//DTD SVG 1.1//EN" "http://www.w3.org/Graphics/SVG/1.1/DTD/svg11.dtd">
<svg version="1.1" id="galaxy" xmlns="http://www.w3.org/2000/svg" xmlns:xlink="http://www.w3.org/1999/xlink" x="0px" y="0px"
	 width="512px" height="512px" viewBox="0 0 512 512" enable-background="new 0 0 512 512" xml:space="preserve">
<path fill="#FE5B67" d="M242.32,441.427c-79.569-14.429-115.183-69.774-130.457-107.368c-9.871-24.297-13.644-50.765-10.536-76.804
	c4.377-36.676,20.279-61.807,37.023-78.551c25.261-25.261,60.823-37.582,96.403-34.395c49.873,4.468,74.146,36.605,74.146,36.605
	c51.745,66.075,12.341,113.214,12.341,113.214s-33.854,41.813-83.1,22.599c-50.41-19.67-28.532-62.2-28.532-62.2
	c12.229-22.232,29.75-24.254,40.534-22.938c2.489,0.304,3.637-3.009,1.509-4.337c-8.246-5.146-22.153-9.76-39.035,0.681
	c-14.535,8.99-24.185,24.307-26.338,41.262c-2.73,21.498,3.544,52.805,53.004,73.211c0,0,70.303,31.865,120.975-47.363
	c0,0,62.2-104.427-57.063-182.034c0,0-89.59-54.781-179.181,25.679c0,0-67.906,58.205-54.211,153.501
	c0,0,4.625,46.955,37.662,87.879c0,0,53.395,64.059,134.495,65.043c1.035,0.012,1.888-0.836,1.888-1.87l0,0
	C243.848,442.346,243.199,441.586,242.32,441.427z"/>
<path fill="#4A6273" d="M258.518,85.694c79.569,14.429,115.183,69.774,130.457,107.369c9.871,24.296,13.645,50.764,10.535,76.803
	c-4.376,36.677-20.277,61.807-37.022,78.552c-25.261,25.26-60.822,37.581-96.403,34.395c-49.872-4.469-74.146-36.605-74.146-36.605
	c-51.746-66.075-12.341-113.214-12.341-113.214s33.855-41.813,83.101-22.599c50.41,19.67,28.532,62.2,28.532,62.2
	c-12.229,22.232-29.75,24.254-40.535,22.938c-2.49-0.304-3.637,3.009-1.509,4.337c8.247,5.146,22.152,9.76,39.034-0.682
	c14.536-8.989,24.186-24.307,26.339-41.262c2.73-21.497-3.545-52.805-53.003-73.211c0,0-70.305-31.865-120.977,47.363
	c0,0-62.2,104.427,57.064,182.033c0,0,89.59,54.781,179.181-25.678c0,0,67.906-58.205,54.211-153.502
	c0,0-4.625-46.954-37.662-87.879c0,0-53.395-64.058-134.496-65.041c-1.034-0.013-1.887,0.835-1.887,1.869l0,0
	C256.99,84.775,257.639,85.535,258.518,85.694z"/>
<g>
	<circle fill="#ffcf40" cx="372.093" cy="337.648" r="10.309"/>
	<circle fill="#ffcf40" cx="445.324" cy="303.074" r="5.474"/>
	<circle fill="#ffcf40" cx="376.405" cy="226.988" r="5.997"/>
	<circle fill="#ffcf40" cx="414.672" cy="139.957" r="4.379"/>
	<circle fill="#ffcf40" cx="247.177" cy="58.946" r="4.379"/>
	<circle fill="#ffcf40" cx="256.481" cy="166.778" r="5.474"/>
	<circle fill="#57aeb7" cx="128.733" cy="189.484" r="9.617"/>
	<circle fill="#57aeb7" cx="118.086" cy="113.684" r="6.281"/>
	<circle fill="#57aeb7" cx="67.979" cy="358.358" r="6.776"/>
	<circle fill="#57aeb7" cx="143.724" cy="353.979" r="7.663"/>
	<circle fill="#57aeb7" cx="327.64" cy="450.316" r="7.116"/>
	<circle fill="#57aeb7" cx="247.176" cy="318.83" r="7.277"/>
</g>
<circle fill="#F2F2F2" cx="232.504" cy="397.32" r="5.721"/>
<circle fill="#F2F2F2" cx="146.046" cy="291.789" r="3.814"/>
<circle fill="#F2F2F2" cx="196.904" cy="193.888" r="3.814"/>
<circle fill="#F2F2F2" cx="224.24" cy="115.057" r="6.993"/>
<circle fill="#F2F2F2" cx="336.128" cy="192.616" r="2.543"/>
<circle fill="#F2F2F2" cx="372.364" cy="140.486" r="5.722"/>
<circle fill="#F2F2F2" cx="81.201" cy="261.273" r="2.543"/>
<circle fill="#F2F2F2" cx="348.843" cy="274.625" r="4.45"/>
</svg>
